<svg width="24" height="24" viewBox="0 0 24 24" fill="none" xmlns="http://www.w3.org/2000/svg">
<path d="M2.18182 0C0.988636 0 0 0.988636 0 2.18182V21.8182C0 23.0114 0.988636 24 2.18182 24H21.8182C23.0114 24 24 23.0114 24 21.8182V2.18182C24 0.988636 23.0114 0 21.8182 0H2.18182ZM2.18182 2.18182H21.8182V21.8182H16.1591V14.4545H18.9886L19.3977 11.1818H16.1591V9.06818C16.1591 8.11364 16.3935 7.46591 17.7614 7.46591H19.5341V4.5C19.2315 4.46165 18.1832 4.39773 16.9773 4.39773C14.4631 4.39773 12.75 5.91051 12.75 8.72727V11.1818H9.88636V14.4545H12.75V21.8182H2.18182V2.18182Z" fill="white"/>
</svg>
