<svg width="31" height="31" viewBox="0 0 31 31" fill="none" xmlns="http://www.w3.org/2000/svg">
<g id="React-6 1" clip-path="url(#clip0_7_38)">
<g id="Group">
<path id="Vector" d="M15.5 0C6.94142 0 0 6.94013 0 15.5C0 22.3484 4.44075 28.1583 10.6007 30.2082C11.3744 30.3516 11.625 29.8711 11.625 29.4629V26.5773C7.31342 27.5151 6.41571 24.7483 6.41571 24.7483C5.71046 22.9568 4.69392 22.4802 4.69392 22.4802C3.28729 21.5179 4.80113 21.5385 4.80113 21.5385C6.35758 21.647 7.1765 23.1363 7.1765 23.1363C8.55858 25.5053 10.8022 24.8207 11.687 24.4241C11.8252 23.4231 12.2269 22.7385 12.6713 22.3523C9.22896 21.9583 5.60971 20.6292 5.60971 14.6914C5.60971 12.998 6.2155 11.616 7.20621 10.531C7.04604 10.1396 6.51517 8.56246 7.35733 6.42863C7.35733 6.42863 8.65933 6.01271 11.6211 8.01737C12.8572 7.67379 14.1825 7.502 15.5 7.49554C16.8175 7.502 18.144 7.67379 19.3827 8.01737C22.342 6.01271 23.6414 6.42863 23.6414 6.42863C24.4848 8.56375 23.954 10.1409 23.7938 10.531C24.7884 11.616 25.389 12.9993 25.389 14.6914C25.389 20.6447 21.7633 21.9558 18.312 22.3394C18.8674 22.8199 19.375 23.7628 19.375 25.2095V29.4629C19.375 29.875 19.623 30.3593 20.4096 30.2069C26.5644 28.1545 31 22.3458 31 15.5C31 6.94013 24.0599 0 15.5 0Z" fill="white"/>
</g>
</g>
<defs>
<clipPath id="clip0_7_38">
<rect width="31" height="31" fill="white"/>
</clipPath>
</defs>
</svg>
