<svg width="361" height="43" viewBox="0 0 361 43" fill="none" xmlns="http://www.w3.org/2000/svg">
<path d="M49.774 8.20618H54.9057L63.6308 24.0375L72.356 8.20618H77.3763V34.2203H73.1899V14.2823L65.5387 28.0883H61.6115L53.961 14.2823V34.2203H49.774V8.20618Z" fill="white"/>
<path d="M90.8784 34.6849C88.9393 34.6849 87.2352 34.2544 85.7655 33.3938C84.3093 32.5469 83.1189 31.3076 82.3294 29.8164C81.5077 28.2928 81.0971 26.5461 81.0973 24.5765C81.0973 22.5823 81.4987 20.817 82.3014 19.2807C83.1042 17.7449 84.2188 16.5432 85.6454 15.6758C87.0716 14.8089 88.711 14.3753 90.5636 14.3751C92.4038 14.3751 93.9877 14.8118 95.315 15.6852C96.6428 16.5585 97.6647 17.7819 98.3811 19.3552C99.0972 20.9285 99.4555 22.7741 99.4557 24.8922V26.0446H85.247C85.5062 27.6304 86.1454 28.8783 87.1641 29.7888C88.183 30.6993 89.4707 31.1544 91.0268 31.1546C92.2741 31.1546 93.3485 30.9688 94.2501 30.597C95.1512 30.2254 95.9973 29.6616 96.7879 28.9059L99.0112 31.6376C96.8001 33.6692 94.0892 34.6851 90.8784 34.6849ZM93.9354 19.2531C93.0583 18.3548 91.9097 17.9057 90.4896 17.9058C89.1063 17.9058 87.9484 18.3641 87.0161 19.2807C86.0834 20.1978 85.4936 21.4305 85.247 22.9787H95.4358C95.3121 21.393 94.8119 20.1511 93.9354 19.2531Z" fill="white"/>
<path d="M104.534 18.2775H100.681V14.8399H104.534V9.15381H108.573V14.8399H114.426V18.2775H108.573V26.9921C108.573 28.4416 108.82 29.4761 109.314 30.0955C109.808 30.715 110.654 31.0248 111.852 31.0243C112.303 31.0284 112.755 31.0067 113.204 30.9594C113.574 30.9162 113.982 30.8573 114.426 30.7829V34.1835C113.919 34.3304 113.402 34.4422 112.88 34.5177C112.282 34.6062 111.678 34.6497 111.073 34.6479C106.714 34.6479 104.534 32.2571 104.534 27.4755V18.2775Z" fill="white"/>
<path d="M135.469 34.2205H131.504V31.5074C130.821 32.5055 129.897 33.3141 128.818 33.8582C127.731 34.409 126.496 34.6847 125.113 34.6849C123.409 34.6849 121.899 34.2483 120.584 33.3752C119.269 32.5014 118.234 31.2999 117.481 29.7702C116.728 28.2406 116.351 26.4907 116.351 24.5208C116.351 22.5389 116.734 20.7859 117.5 19.2622C118.265 17.7385 119.324 16.543 120.677 15.6758C122.029 14.8089 123.582 14.3753 125.335 14.3751C126.657 14.3751 127.843 14.6321 128.893 15.1462C129.928 15.6489 130.825 16.3986 131.504 17.3297V14.8399H135.469V34.2205ZM131.43 21.6221C130.998 20.5197 130.316 19.6494 129.383 19.0112C128.451 18.3737 127.373 18.0548 126.151 18.0546C124.421 18.0546 123.044 18.6368 122.02 19.8012C120.995 20.9656 120.482 22.5389 120.482 24.5211C120.482 26.5156 120.976 28.095 121.964 29.2592C122.952 30.4236 124.292 31.0059 125.984 31.0059C127.231 31.0059 128.343 30.6836 129.318 30.0395C130.277 29.4163 131.016 28.506 131.43 27.438V21.6221Z" fill="white"/>
<path d="M145.328 26.6113C144.686 24.9699 144.365 23.1706 144.365 21.2132C144.365 19.2561 144.686 17.4569 145.328 15.8155C145.939 14.2215 146.866 12.7678 148.051 11.5417C149.228 10.3312 150.64 9.3762 152.2 8.73584C153.794 8.07303 155.541 7.74157 157.443 7.74146C159.345 7.74146 161.093 8.07292 162.686 8.73584C164.246 9.37629 165.658 10.3313 166.835 11.5417C168.02 12.7681 168.947 14.2217 169.559 15.8155C170.2 17.4569 170.521 19.2561 170.522 21.2132C170.522 23.1706 170.201 24.9701 169.559 26.6113C168.947 28.205 168.02 29.6587 166.835 30.8851C165.658 32.0956 164.246 33.0507 162.686 33.6909C161.093 34.3534 159.345 34.6849 157.443 34.6849C155.541 34.6849 153.794 34.3536 152.2 33.6909C150.64 33.0507 149.228 32.0956 148.051 30.8851C146.866 29.6589 145.939 28.2053 145.328 26.6113ZM166.094 21.2132C166.094 19.3431 165.724 17.6925 164.983 16.2614C164.242 14.8305 163.22 13.7125 161.917 12.9075C160.614 12.1023 159.122 11.6997 157.443 11.6996C155.764 11.6996 154.272 12.1022 152.969 12.9075C151.666 13.7127 150.644 14.8306 149.903 16.2614C149.162 17.692 148.792 19.3426 148.792 21.2132C148.792 23.084 149.162 24.7347 149.903 26.1655C150.645 27.5963 151.666 28.7143 152.969 29.5193C154.272 30.3247 155.763 30.7276 157.443 30.7273C159.122 30.7273 160.614 30.3247 161.917 29.5193C163.22 28.7143 164.242 27.5963 164.983 26.1655C165.724 24.7345 166.094 23.0837 166.094 21.2132Z" fill="white"/>
<path d="M174.225 14.8399H178.207V17.5341C178.888 16.539 179.809 15.7335 180.885 15.1928C181.965 14.648 183.197 14.3754 184.58 14.3751C186.284 14.3751 187.797 14.8118 189.119 15.6852C190.44 16.5585 191.475 17.757 192.222 19.2807C192.969 20.8044 193.342 22.5573 193.342 24.5394C193.342 26.509 192.96 28.2589 192.194 29.7888C191.428 31.3189 190.369 32.5173 189.017 33.3843C187.665 34.2513 186.112 34.6847 184.358 34.6849C183.062 34.6849 181.894 34.4373 180.857 33.9419C179.833 33.4578 178.943 32.7307 178.263 31.8236V42.0246H174.225V14.8399ZM180.31 30.0488C181.243 30.687 182.32 31.0061 183.543 31.0059C185.272 31.0059 186.649 30.4236 187.674 29.2592C188.699 28.0948 189.211 26.5215 189.211 24.5394C189.211 22.5449 188.718 20.9655 187.73 19.8012C186.741 18.6368 185.401 18.0545 183.71 18.0545C182.462 18.0545 181.351 18.3766 180.375 19.0206C179.416 19.6439 178.678 20.554 178.263 21.622V27.438C178.695 28.5407 179.378 29.4111 180.31 30.0488Z" fill="white"/>
<path d="M205.718 34.6849C203.779 34.6849 202.075 34.2544 200.605 33.3938C199.149 32.5469 197.958 31.3076 197.169 29.8164C196.347 28.2928 195.937 26.5461 195.937 24.5765C195.937 22.5823 196.338 20.817 197.141 19.2807C197.943 17.7449 199.058 16.5432 200.484 15.6758C201.911 14.8089 203.55 14.3753 205.403 14.3751C207.243 14.3751 208.827 14.8118 210.155 15.6852C211.482 16.5585 212.504 17.7819 213.221 19.3552C213.937 20.9285 214.295 22.7741 214.295 24.8922V26.0446H200.086C200.345 27.6304 200.985 28.8783 202.004 29.7888C203.023 30.6993 204.31 31.1544 205.866 31.1546C207.113 31.1546 208.188 30.9688 209.089 30.597C209.991 30.2254 210.837 29.6616 211.627 28.9059L213.85 31.6376C211.639 33.6692 208.929 34.6851 205.718 34.6849ZM208.774 19.2531C207.897 18.3548 206.749 17.9057 205.329 17.9058C203.946 17.9058 202.788 18.3641 201.855 19.2807C200.923 20.1978 200.333 21.4305 200.086 22.9787H210.275C210.151 21.393 209.651 20.1511 208.774 19.2531Z" fill="white"/>
<path d="M217.702 14.8399H221.685V17.6643C223.179 15.4714 225.26 14.375 227.929 14.3751C230.225 14.3751 231.99 15.0936 233.226 16.5306C234.46 17.9678 235.079 20.0242 235.079 22.6997V34.2205H231.04V23.1829C231.04 21.3745 230.72 20.0428 230.077 19.188C229.433 18.3332 228.427 17.9059 227.058 17.9059C225.86 17.9059 224.803 18.2155 223.889 18.8348C222.975 19.4545 222.259 20.3216 221.74 21.4362V34.2205H217.702V14.8399Z" fill="white"/>
<path d="M263.699 26.8623C263.699 29.3273 262.851 31.2476 261.152 32.6227C259.455 33.9976 257.019 34.6849 253.844 34.6849C251.461 34.6849 249.34 34.233 247.481 33.3286C245.622 32.4247 244.174 31.1114 243.138 29.3891L246.286 26.8994C247.15 28.2125 248.23 29.1882 249.528 29.8259C250.825 30.4641 252.314 30.783 253.993 30.783C255.685 30.783 257 30.4607 257.939 29.8164C258.878 29.1725 259.347 28.2992 259.347 27.1966C259.347 26.2429 259.02 25.4533 258.365 24.8275C257.711 24.2022 256.599 23.7283 255.031 23.406L251.141 22.5884C246.374 21.5974 243.989 19.1818 243.989 15.3415C243.989 13.8179 244.386 12.4861 245.175 11.3464C245.965 10.2069 247.086 9.32118 248.537 8.68931C249.988 8.05753 251.689 7.74157 253.641 7.74146C257.975 7.74146 261.217 9.42624 263.365 12.7958L260.18 15.0815C259.415 13.917 258.503 13.053 257.447 12.4892C256.391 11.9255 255.11 11.6438 253.605 11.6439C251.937 11.6439 250.642 11.9504 249.724 12.5634C248.804 13.1767 248.343 14.0531 248.343 15.1928C248.343 16.06 248.643 16.76 249.241 17.2926C249.839 17.8252 250.886 18.2526 252.382 18.5747L256.272 19.3924C261.224 20.433 263.699 22.9231 263.699 26.8623Z" fill="white"/>
<path d="M267.765 29.8354C266.932 28.3114 266.515 26.5461 266.515 24.5394C266.515 22.5203 266.932 20.7488 267.765 19.225C268.57 17.7314 269.778 16.495 271.249 15.6572C272.735 14.8025 274.462 14.3751 276.427 14.3751C278.39 14.3751 280.116 14.8025 281.603 15.6572C283.076 16.4953 284.283 17.7316 285.086 19.225C285.921 20.7487 286.336 22.5202 286.336 24.5394C286.336 26.5461 285.921 28.3114 285.086 29.8354C284.283 31.3286 283.076 32.565 281.603 33.4028C280.116 34.2576 278.39 34.6849 276.427 34.6849C274.475 34.6849 272.751 34.2576 271.258 33.4028C269.782 32.5673 268.57 31.3307 267.765 29.8354ZM282.205 24.5394C282.205 22.5948 281.677 21.0339 280.621 19.8568C279.565 18.6799 278.169 18.0915 276.427 18.0917C274.685 18.0917 273.286 18.68 272.23 19.8568C271.174 21.0337 270.646 22.5946 270.646 24.5394C270.646 26.4719 271.174 28.0267 272.23 29.2035C273.286 30.3804 274.685 30.9688 276.427 30.9688C278.169 30.9688 279.565 30.3804 280.621 29.2035C281.677 28.0267 282.205 26.4719 282.205 24.5394Z" fill="white"/>
<path d="M306.64 34.2203H302.656V31.4333C301.173 33.6011 299.125 34.685 296.505 34.685C294.233 34.685 292.489 33.9664 291.273 32.5295C290.057 31.0924 289.448 29.0361 289.448 26.3602V14.8398H293.486V25.8772C293.486 27.6735 293.802 29.0019 294.432 29.8631C295.061 30.7242 296.049 31.1547 297.394 31.1544C298.556 31.1544 299.587 30.848 300.487 30.2347C301.39 29.6214 302.094 28.7636 302.599 27.661V14.8398H306.64V34.2203Z" fill="white"/>
<path d="M311.085 14.8402H315.067V17.813C316.315 15.6454 318.018 14.5615 320.18 14.5613C320.884 14.5613 321.459 14.6232 321.904 14.7471V18.4822C321.297 18.3962 320.683 18.3527 320.069 18.352C317.648 18.352 315.999 19.4421 315.124 21.6223V34.2207H311.085V14.8402Z" fill="white"/>
<path d="M324.307 19.2156C325.078 17.7257 326.256 16.4879 327.707 15.6481C329.162 14.7998 330.868 14.3754 332.819 14.3751C336.45 14.3751 339.155 15.8184 340.933 18.7049L337.783 20.8418C337.154 19.8879 336.45 19.191 335.671 18.7511C334.893 18.3116 333.954 18.0918 332.856 18.0917C331.177 18.0917 329.819 18.6831 328.781 19.866C327.743 21.0493 327.224 22.6009 327.224 24.5208C327.224 26.54 327.732 28.1195 328.742 29.2592C329.755 30.3989 331.184 30.9688 333.023 30.9688C334.002 30.9767 334.97 30.7438 335.838 30.2903C336.673 29.8651 337.391 29.2434 337.932 28.4786L340.748 30.9688C338.857 33.4463 336.251 34.6851 332.93 34.6849C330.942 34.6849 329.209 34.2669 327.734 33.4309C326.274 32.6119 325.083 31.3852 324.307 29.9001C323.497 28.3829 323.093 26.602 323.093 24.558C323.093 22.5264 323.497 20.7456 324.307 19.2156Z" fill="white"/>
<path d="M352.415 34.6849C350.475 34.6849 348.771 34.2544 347.3 33.3938C345.845 32.5469 344.653 31.3076 343.864 29.8164C343.042 28.2928 342.632 26.5461 342.632 24.5765C342.632 22.5823 343.033 20.817 343.837 19.2807C344.64 17.7449 345.755 16.5432 347.18 15.6758C348.606 14.8089 350.247 14.3753 352.099 14.3751C353.938 14.3751 355.522 14.8118 356.851 15.6852C358.177 16.5585 359.2 17.7819 359.917 19.3552C360.632 20.9285 360.991 22.7741 360.991 24.8922V26.0446H346.781C347.043 27.6304 347.681 28.8783 348.699 29.7888C349.719 30.6993 351.007 31.1544 352.562 31.1546C353.809 31.1546 354.883 30.9688 355.786 30.597C356.686 30.2254 357.532 29.6616 358.324 28.9059L360.546 31.6376C358.335 33.6692 355.626 34.6851 352.415 34.6849ZM355.47 19.2531C354.594 18.3548 353.444 17.9057 352.025 17.9058C350.642 17.9058 349.484 18.3641 348.552 19.2807C347.618 20.1978 347.029 21.4305 346.781 22.9787H356.97C356.846 21.393 356.348 20.1511 355.47 19.2531Z" fill="white"/>
<path d="M11.8683 7.32153C11.8551 7.32153 11.842 7.32158 11.8288 7.32165L11.7748 11.7953C11.7871 11.7952 11.7995 11.7951 11.8119 11.7951C14.7475 11.7951 17.0245 14.1168 21.9737 22.4788L22.2754 22.988L22.2952 23.0213L25.0656 18.8516L25.0464 18.8194C24.3945 17.7557 23.7682 16.777 23.1674 15.8834C22.4707 14.848 21.8045 13.923 21.1579 13.0972C17.8838 8.91572 15.145 7.32153 11.8683 7.32153Z" fill="url(#paint0_linear_7_41)"/>
<path d="M11.8272 7.32165C8.53458 7.33864 5.62367 9.47429 3.52177 12.7423C3.51562 12.7518 3.50946 12.7614 3.5033 12.771L7.36162 14.8774C7.36787 14.8679 7.37419 14.8584 7.38046 14.8489C8.60786 12.9952 10.1353 11.813 11.7732 11.7953C11.7855 11.7952 11.7979 11.7951 11.8102 11.7951L11.8667 7.32153C11.8535 7.32153 11.8404 7.32158 11.8272 7.32165Z" fill="url(#paint1_linear_7_41)"/>
<path d="M3.52174 12.7424C3.5156 12.752 3.50944 12.7616 3.50328 12.7712C2.12209 14.9278 1.09246 17.5743 0.536011 20.4293C0.533601 20.4416 0.5312 20.454 0.528809 20.4664L4.86346 21.4923C4.86572 21.4799 4.86799 21.4675 4.87027 21.4551C5.33362 18.946 6.2157 16.6189 7.36156 14.8776C7.36783 14.8681 7.37412 14.8586 7.38042 14.8491L3.52174 12.7424Z" fill="url(#paint2_linear_7_41)"/>
<path d="M4.87283 21.455L0.538548 20.4292C0.536138 20.4415 0.533737 20.4539 0.531343 20.4663C0.227921 22.0364 0.0735532 23.6319 0.0703125 25.2313C0.0703125 25.2442 0.0703125 25.2571 0.0703125 25.27L4.51567 25.669C4.51531 25.6561 4.51494 25.6432 4.51463 25.63C4.51246 25.5375 4.51136 25.4433 4.51131 25.348C4.51352 24.0546 4.63225 22.7642 4.86604 21.4922C4.86825 21.4798 4.87055 21.4674 4.87283 21.455Z" fill="url(#paint3_linear_7_41)"/>
<path d="M4.65102 27.0602C4.57128 26.6005 4.52609 26.1355 4.51582 25.669C4.51546 25.6559 4.5151 25.6432 4.51479 25.6301L0.0705043 25.2313C0.0705043 25.2442 0.0705043 25.2571 0.0705043 25.27V25.2725C0.065808 26.2076 0.147351 27.141 0.314091 28.061C0.316418 28.0734 0.318703 28.0856 0.321063 28.0981L4.65779 27.0973C4.65546 27.0851 4.65325 27.0726 4.65102 27.0602Z" fill="url(#paint4_linear_7_41)"/>
<path d="M5.66263 29.3679C5.17889 28.8383 4.83653 28.0745 4.65657 27.0973C4.65429 27.0851 4.65208 27.0726 4.64985 27.0602L0.312866 28.0609C0.315192 28.0734 0.317478 28.0856 0.319838 28.0981C0.647644 29.8244 1.29055 31.2631 2.21119 32.3517C2.21938 32.3612 2.22759 32.3709 2.23584 32.3806L5.68847 29.3958C5.67983 29.3867 5.67118 29.3774 5.66263 29.3679Z" fill="url(#paint5_linear_7_41)"/>
<path d="M18.5122 16.993C15.8988 21.014 14.3156 23.536 14.3156 23.536C10.8342 29.0099 9.62979 30.2367 7.69153 30.2367C6.88276 30.2367 6.20708 29.9479 5.68943 29.3957C5.68081 29.3867 5.67214 29.3774 5.66359 29.3679L2.21216 32.3516C2.22034 32.3612 2.22856 32.3709 2.2368 32.3806C3.50799 33.8668 5.30237 34.6915 7.52215 34.6915C10.8806 34.6915 13.296 33.1035 17.5899 25.5746C17.5899 25.5746 19.3799 22.4039 20.6113 20.2199C19.8485 18.9846 19.1544 17.9151 18.5122 16.993Z" fill="#0082FB"/>
<path d="M23.169 10.6461C23.1602 10.6555 23.1514 10.6651 23.1426 10.6745C22.4344 11.4424 21.7713 12.251 21.1567 13.0961C21.8034 13.9219 22.4709 14.8487 23.1676 15.8841C23.9887 14.6128 24.7551 13.5832 25.5064 12.7941C25.5152 12.7847 25.524 12.7756 25.5331 12.7663L23.169 10.6461Z" fill="url(#paint6_linear_7_41)"/>
<path d="M35.8545 10.2522C34.0319 8.40525 31.8587 7.32153 29.5355 7.32153C27.0856 7.32153 25.025 8.66813 23.1665 10.6464C23.1575 10.6558 23.1487 10.6653 23.1399 10.6748L25.5038 12.7943C25.5126 12.785 25.5214 12.7759 25.5304 12.7666C26.7546 11.4891 27.9396 10.8513 29.2532 10.8513C30.667 10.8513 31.9905 11.5189 33.1369 12.6892C33.1457 12.6984 33.1547 12.7075 33.1637 12.7167L35.8816 10.2797C35.8726 10.2705 35.8636 10.2614 35.8545 10.2522Z" fill="#0082FB"/>
<path d="M41.1253 24.6424C41.0234 18.7121 38.9544 13.4105 35.8834 10.2797C35.8744 10.2705 35.8654 10.2614 35.8563 10.2522L33.1387 12.6892C33.1477 12.6984 33.1565 12.7075 33.1655 12.7167C35.4757 15.097 37.0603 19.5245 37.2044 24.6411C37.2049 24.654 37.2051 24.6669 37.2056 24.6798L41.126 24.6811C41.1258 24.6682 41.1256 24.6553 41.1253 24.6424Z" fill="url(#paint7_linear_7_41)"/>
<path d="M41.1229 24.681C41.1226 24.6681 41.1224 24.6552 41.1222 24.6423L37.2013 24.641C37.2017 24.6539 37.2019 24.6668 37.2024 24.6797C37.2087 24.9198 37.2119 25.1615 37.2119 25.4046C37.2119 26.7996 37.0041 27.9273 36.5817 28.7414C36.5754 28.7534 36.5691 28.7656 36.5627 28.7776L39.4859 31.8272C39.4934 31.8161 39.5004 31.8052 39.5076 31.7942C40.5689 30.1516 41.126 27.8696 41.126 25.1024C41.126 24.9617 41.1251 24.8211 41.1229 24.681Z" fill="url(#paint8_linear_7_41)"/>
<path d="M36.5869 28.7415C36.5806 28.7534 36.5743 28.7657 36.568 28.7777C36.2022 29.4639 35.6804 29.9217 34.9983 30.1218L36.3311 34.3346C36.5075 34.2744 36.6792 34.207 36.8464 34.1321C36.8965 34.1099 36.9459 34.0868 36.9951 34.0633C37.0233 34.0497 37.0515 34.0359 37.0795 34.0219C37.9684 33.5719 38.7335 32.9102 39.3077 32.0943C39.3445 32.0434 39.3808 31.9918 39.4167 31.9393C39.4417 31.9022 39.4666 31.8648 39.4914 31.8273C39.4986 31.8162 39.5056 31.8051 39.5128 31.794L36.5869 28.7415Z" fill="url(#paint9_linear_7_41)"/>
<path d="M34.1482 30.2365C33.7267 30.2467 33.3082 30.1648 32.9212 29.9968L31.5566 34.31C32.3235 34.5727 33.1419 34.6913 34.0541 34.6913C34.8399 34.6985 35.6213 34.5738 36.3661 34.3217L35.0335 30.1104C34.7465 30.1967 34.448 30.2392 34.1482 30.2365Z" fill="url(#paint10_linear_7_41)"/>
<path d="M31.4167 28.7614C31.4083 28.7516 31.3997 28.7419 31.3914 28.7322L28.2516 32.0076C28.2604 32.0169 28.2692 32.0264 28.278 32.0357C29.3689 33.2019 30.4106 33.9254 31.5922 34.3224L32.9556 30.0124C32.4577 29.7979 31.9762 29.4091 31.4167 28.7614Z" fill="url(#paint11_linear_7_41)"/>
<path d="M31.394 28.7321C30.4522 27.6333 29.2871 25.8043 27.4546 22.8465L25.0663 18.8513L25.0471 18.8191L22.2761 22.9875L22.2959 23.0208L23.9881 25.8762C25.6283 28.6296 26.9647 30.6214 28.2542 32.0074C28.263 32.0169 28.2718 32.0264 28.2806 32.0356L31.4192 28.7613C31.4109 28.7516 31.4025 28.7418 31.394 28.7321Z" fill="url(#paint12_linear_7_41)"/>
<defs>
<linearGradient id="paint0_linear_7_41" x1="23.2242" y1="21.3255" x2="13.9905" y2="9.26312" gradientUnits="userSpaceOnUse">
<stop offset="0.0006" stop-color="#0867DF"/>
<stop offset="0.4539" stop-color="#0668E1"/>
<stop offset="0.8591" stop-color="#0064E0"/>
</linearGradient>
<linearGradient id="paint1_linear_7_41" x1="5.31563" y1="13.494" x2="11.6356" y2="8.71053" gradientUnits="userSpaceOnUse">
<stop offset="0.1323" stop-color="#0064DF"/>
<stop offset="0.9988" stop-color="#0064E0"/>
</linearGradient>
<linearGradient id="paint2_linear_7_41" x1="2.64279" y1="20.541" x2="5.1857" y2="14.1592" gradientUnits="userSpaceOnUse">
<stop offset="0.0147" stop-color="#0072EC"/>
<stop offset="0.6881" stop-color="#0064DF"/>
</linearGradient>
<linearGradient id="paint3_linear_7_41" x1="2.30181" y1="25.155" x2="2.59628" y2="21.2543" gradientUnits="userSpaceOnUse">
<stop offset="0.0731" stop-color="#007CF6"/>
<stop offset="0.9943" stop-color="#0072EC"/>
</linearGradient>
<linearGradient id="paint4_linear_7_41" x1="2.46295" y1="27.2738" x2="2.25234" y2="25.7111" gradientUnits="userSpaceOnUse">
<stop offset="0.0731" stop-color="#007FF9"/>
<stop offset="1" stop-color="#007CF6"/>
</linearGradient>
<linearGradient id="paint5_linear_7_41" x1="2.33888" y1="27.6844" x2="3.65017" y2="30.457" gradientUnits="userSpaceOnUse">
<stop offset="0.0731" stop-color="#007FF9"/>
<stop offset="1" stop-color="#0082FB"/>
</linearGradient>
<linearGradient id="paint6_linear_7_41" x1="22.3921" y1="14.2529" x2="24.124" y2="11.865" gradientUnits="userSpaceOnUse">
<stop offset="0.2799" stop-color="#007FF8"/>
<stop offset="0.9141" stop-color="#0082FB"/>
</linearGradient>
<linearGradient id="paint7_linear_7_41" x1="35.5059" y1="11.1518" x2="39.1352" y2="24.461" gradientUnits="userSpaceOnUse">
<stop stop-color="#0082FB"/>
<stop offset="0.9995" stop-color="#0081FA"/>
</linearGradient>
<linearGradient id="paint8_linear_7_41" x1="39.9825" y1="24.9759" x2="37.6875" y2="29.5994" gradientUnits="userSpaceOnUse">
<stop offset="0.0619" stop-color="#0081FA"/>
<stop offset="1" stop-color="#0080F9"/>
</linearGradient>
<linearGradient id="paint9_linear_7_41" x1="35.8891" y1="32.0592" x2="38.0278" y2="30.6069" gradientUnits="userSpaceOnUse">
<stop stop-color="#027AF3"/>
<stop offset="1" stop-color="#0080F9"/>
</linearGradient>
<linearGradient id="paint10_linear_7_41" x1="32.5392" y1="32.3439" x2="35.5058" y2="32.3439" gradientUnits="userSpaceOnUse">
<stop stop-color="#0377EF"/>
<stop offset="0.9994" stop-color="#0279F1"/>
</linearGradient>
<linearGradient id="paint11_linear_7_41" x1="29.9591" y1="30.7054" x2="32.0951" y2="31.9583" gradientUnits="userSpaceOnUse">
<stop offset="0.0019" stop-color="#0471E9"/>
<stop offset="1" stop-color="#0377EF"/>
</linearGradient>
<linearGradient id="paint12_linear_7_41" x1="23.4563" y1="21.4252" x2="30.3136" y2="30.0207" gradientUnits="userSpaceOnUse">
<stop offset="0.2765" stop-color="#0867DF"/>
<stop offset="1" stop-color="#0471E9"/>
</linearGradient>
</defs>
</svg>
