<svg id="menu-left-alt" xmlns="http://www.w3.org/2000/svg" width="13.426" height="13.423" viewBox="0 0 13.426 13.423">
  <path id="Caminho_1" data-name="Caminho 1" d="M19.426,8.446a.9.9,0,0,0-.839-.946H6.839A.9.9,0,0,0,6,8.446a.9.9,0,0,0,.839.946H18.587A.9.9,0,0,0,19.426,8.446Z" transform="translate(-6 -7.5)" fill="#fff"/>
  <path id="Caminho_2" data-name="Caminho 2" d="M19.426,26.446a.9.9,0,0,0-.839-.946H6.839a.952.952,0,0,0,0,1.891H18.587A.9.9,0,0,0,19.426,26.446Z" transform="translate(-6 -13.968)" fill="#fff"/>
  <path id="Caminho_3" data-name="Caminho 3" d="M14.51,16.5a.946.946,0,0,1,0,1.891H6.946a.946.946,0,1,1,0-1.891Z" transform="translate(-2.029 -10.734)" fill="#fff"/>
</svg>
