<svg width="42" height="42" viewBox="0 0 42 42" fill="none" xmlns="http://www.w3.org/2000/svg">
<path d="M8.90112 9H32.6048" stroke="white" stroke-width="2" stroke-miterlimit="10" stroke-linecap="round" stroke-linejoin="round"/>
<path d="M8.90112 17H32.6048" stroke="white" stroke-width="2" stroke-miterlimit="10" stroke-linecap="round" stroke-linejoin="round"/>
<path d="M1 25H12.8519V31H28.6543V25H40.5062" stroke="white" stroke-width="2" stroke-miterlimit="10" stroke-linecap="round" stroke-linejoin="round"/>
<path d="M36.5556 1H4.95062C2.76875 1 1 2.79086 1 5V37C1 39.2091 2.76875 41 4.95062 41H36.5556C38.7374 41 40.5062 39.2091 40.5062 37V5C40.5062 2.79086 38.7374 1 36.5556 1Z" stroke="white" stroke-width="2" stroke-miterlimit="10" stroke-linecap="round" stroke-linejoin="round"/>
<path d="M9.52469 25H6C3.23858 25 1 27.2386 1 30V37C1 39.7614 3.23857 42 5.99999 42H35.5062C38.2676 42 40.5062 39.7614 40.5062 37V30C40.5062 27.2386 38.2676 25 35.5062 25H31.4877C29.9228 25 28.6543 26.2685 28.6543 27.8333C28.6543 29.3981 27.3858 30.6667 25.821 30.6667H15.1914C13.6266 30.6667 12.358 29.3981 12.358 27.8333C12.358 26.2685 11.0895 25 9.52469 25Z" fill="#D4D4D8"/>
</svg>
