<svg width="46" height="42" viewBox="0 0 46 42" fill="none" xmlns="http://www.w3.org/2000/svg">
<path d="M30.1976 18.4609C29.693 17.9392 29.0788 17.5392 28.4006 17.2907C27.7223 17.0422 26.9976 16.9516 26.28 17.0256C25.5625 17.0996 24.8706 17.3362 24.2558 17.718C23.641 18.0998 23.119 18.6169 22.7286 19.2309C22.3384 18.6167 21.8164 18.0995 21.2016 17.7176C20.5868 17.3357 19.8949 17.099 19.1773 17.025C18.4597 16.951 17.7348 17.0417 17.0566 17.2903C16.3784 17.5389 15.7642 17.939 15.2597 18.4609C14.3493 19.4035 13.8396 20.6695 13.8396 21.9879C13.8396 23.3063 14.3493 24.5722 15.2597 25.5149L22.7286 33.1999L30.1996 25.5159C31.1092 24.5726 31.6183 23.3064 31.6179 21.988C31.6176 20.6696 31.1078 19.4037 30.1976 18.4609Z" fill="#D4D4D8" stroke="white" stroke-width="2" stroke-miterlimit="10" stroke-linecap="round" stroke-linejoin="round"/>
<path d="M40.5062 41H4.95062C3.90285 41 2.89799 40.5786 2.15711 39.8284C1.41622 39.0783 1 38.0609 1 37V1H16.8025L21.7407 9H44.4568V37C44.4568 38.0609 44.0406 39.0783 43.2997 39.8284C42.5588 40.5786 41.5539 41 40.5062 41Z" stroke="white" stroke-width="2" stroke-miterlimit="10" stroke-linecap="round" stroke-linejoin="round"/>
</svg>
