<svg width="26" height="26" viewBox="0 0 26 26" fill="none" xmlns="http://www.w3.org/2000/svg">
<path d="M6.19197 6.09286H6.09563L6.15108 6.17164L11.3988 13.6276L6.10484 19.8247L6.03438 19.9071H6.14286H7.57143H7.59448L7.60945 19.8896L12.1033 14.6283L15.8029 19.8859L15.8178 19.9071H15.8438H20.3795H20.4758L20.4204 19.8284L14.657 11.6391L19.3237 6.17533L19.3942 6.09286H19.2857H17.8571H17.8341L17.8191 6.11039L13.9525 10.6384L10.7686 6.11408L10.7536 6.09286H10.7277H6.19197ZM5 0.95C2.76991 0.95 0.95 2.76991 0.95 5V21C0.95 23.2301 2.76991 25.05 5 25.05H21C23.2301 25.05 25.05 23.2301 25.05 21V5C25.05 2.76991 23.2301 0.95 21 0.95H5ZM5 2.19286H21C22.5573 2.19286 23.8071 3.44266 23.8071 5V21C23.8071 22.5573 22.5573 23.8071 21 23.8071H5C3.44266 23.8071 2.19286 22.5573 2.19286 21V5C2.19286 3.44266 3.44266 2.19286 5 2.19286ZM16.4668 18.6643L8.47592 7.33571H10.1047L18.0955 18.6643H16.4668Z" fill="white" stroke="#B7B7B7" stroke-width="0.1"/>
</svg>
